# xmcd CD database file
#
# Track frame offsets:
#	150
#	48302
#	72845
#	114330
#	139575
#	166542
#	222170
#	252402
#	266720
#	304567
#
# Disc length: 4440 seconds
#
# Revision: 8
# Processed by: cddbd v1.5.2PL0 Copyright (c) Steve Scherf et al.
# Submitted via: CDex 1.51
#
DISCID=8411560a
DTITLE=globe - LEVEL 4
DYEAR=2003
DGENRE=Japanese Pop
TTITLE0=out of c control
TTITLE1=get it on now feat.KEIKO
TTITLE2=weather report
TTITLE3=THE BOX
TTITLE4=this is the last night
TTITLE5=INSIDE feat.MARC
TTITLE6=seize the light
TTITLE7=blow
TTITLE8=compass
TTITLE9=data
EXTD=YEAR: 2003
EXTT0=
EXTT1=
EXTT2=
EXTT3=
EXTT4=
EXTT5=
EXTT6=
EXTT7=
EXTT8=
EXTT9=
PLAYORDER=
